<svg version="1.1" viewBox="0.0 0.0 968.1679790026246 259.43569553805776" fill="none" stroke="none" stroke-linecap="square" stroke-miterlimit="10" xmlns:xlink="http://www.w3.org/1999/xlink" xmlns="http://www.w3.org/2000/svg"><clipPath id="p.0"><path d="m0 0l968.16797 0l0 259.4357l-968.16797 0l0 -259.4357z" clip-rule="nonzero"/></clipPath><g clip-path="url(#p.0)"><path fill="#000000" fill-opacity="0.0" d="m0 0l968.16797 0l0 259.4357l-968.16797 0z" fill-rule="evenodd"/><path fill="#b7b7b7" d="m142.07874 36.003937l0 0c0 -5.6098213 4.752136 -10.15748 10.6141815 -10.15748l0 0c2.8150482 0 5.514801 1.0701599 7.505356 2.9750576c1.9905396 1.9048977 3.1088104 4.488491 3.1088104 7.1824226l0 0c0 5.6098213 -4.752121 10.157482 -10.614166 10.157482l0 0c-5.8620453 0 -10.6141815 -4.547661 -10.6141815 -10.157482z" fill-rule="evenodd"/><path stroke="#b7b7b7" stroke-width="1.0" stroke-linejoin="round" stroke-linecap="butt" d="m142.07874 36.003937l0 0c0 -5.6098213 4.752136 -10.15748 10.6141815 -10.15748l0 0c2.8150482 0 5.514801 1.0701599 7.505356 2.9750576c1.9905396 1.9048977 3.1088104 4.488491 3.1088104 7.1824226l0 0c0 5.6098213 -4.752121 10.157482 -10.614166 10.157482l0 0c-5.8620453 0 -10.6141815 -4.547661 -10.6141815 -10.157482z" fill-rule="evenodd"/><path fill="#b7b7b7" d="m231.0 36.003937l0 0c0 -5.6098213 4.752121 -10.15748 10.614166 -10.15748l0 0c2.8150635 0 5.5148163 1.0701599 7.505356 2.9750576c1.9905548 1.9048977 3.1088257 4.488491 3.1088257 7.1824226l0 0c0 5.6098213 -4.752121 10.157482 -10.6141815 10.157482l0 0c-5.8620453 0 -10.614166 -4.547661 -10.614166 -10.157482z" fill-rule="evenodd"/><path stroke="#b7b7b7" stroke-width="1.0" stroke-linejoin="round" stroke-linecap="butt" d="m231.0 36.003937l0 0c0 -5.6098213 4.752121 -10.15748 10.614166 -10.15748l0 0c2.8150635 0 5.5148163 1.0701599 7.505356 2.9750576c1.9905548 1.9048977 3.1088257 4.488491 3.1088257 7.1824226l0 0c0 5.6098213 -4.752121 10.157482 -10.6141815 10.157482l0 0c-5.8620453 0 -10.614166 -4.547661 -10.614166 -10.157482z" fill-rule="evenodd"/><path fill="#b7b7b7" d="m319.92126 36.003937l0 0c0 -5.6098213 4.752136 -10.15748 10.614166 -10.15748l0 0c2.8150635 0 5.514801 1.0701599 7.505371 2.9750576c1.9905396 1.9048977 3.1087952 4.488491 3.1087952 7.1824226l0 0c0 5.6098213 -4.7521057 10.157482 -10.614166 10.157482l0 0c-5.86203 0 -10.614166 -4.547661 -10.614166 -10.157482z" fill-rule="evenodd"/><path stroke="#b7b7b7" stroke-width="1.0" stroke-linejoin="round" stroke-linecap="butt" d="m319.92126 36.003937l0 0c0 -5.6098213 4.752136 -10.15748 10.614166 -10.15748l0 0c2.8150635 0 5.514801 1.0701599 7.505371 2.9750576c1.9905396 1.9048977 3.1087952 4.488491 3.1087952 7.1824226l0 0c0 5.6098213 -4.7521057 10.157482 -10.614166 10.157482l0 0c-5.86203 0 -10.614166 -4.547661 -10.614166 -10.157482z" fill-rule="evenodd"/><path fill="#b7b7b7" d="m395.6063 68.61811l0 0c0 -5.6098213 4.752136 -10.157482 10.614166 -10.157482l0 0c2.8150635 0 5.5148315 1.0701599 7.505371 2.9750595c1.9905396 1.9048958 3.1088257 4.488491 3.1088257 7.1824226l0 0c0 5.6098175 -4.752136 10.157478 -10.614197 10.157478l0 0c-5.86203 0 -10.614166 -4.547661 -10.614166 -10.157478z" fill-rule="evenodd"/><path stroke="#b7b7b7" stroke-width="1.0" stroke-linejoin="round" stroke-linecap="butt" d="m395.6063 68.61811l0 0c0 -5.6098213 4.752136 -10.157482 10.614166 -10.157482l0 0c2.8150635 0 5.5148315 1.0701599 7.505371 2.9750595c1.9905396 1.9048958 3.1088257 4.488491 3.1088257 7.1824226l0 0c0 5.6098175 -4.752136 10.157478 -10.614197 10.157478l0 0c-5.86203 0 -10.614166 -4.547661 -10.614166 -10.157478z" fill-rule="evenodd"/><path fill="#b7b7b7" d="m65.85302 68.61811l0 0c0 -5.6098213 4.7521286 -10.157482 10.614174 -10.157482l0 0c2.8150482 0 5.5148087 1.0701599 7.505348 2.9750595c1.9905472 1.9048958 3.1088257 4.488491 3.1088257 7.1824226l0 0c0 5.6098175 -4.7521286 10.157478 -10.614174 10.157478l0 0c-5.8620453 0 -10.614174 -4.547661 -10.614174 -10.157478z" fill-rule="evenodd"/><path stroke="#b7b7b7" stroke-width="1.0" stroke-linejoin="round" stroke-linecap="butt" d="m65.85302 68.61811l0 0c0 -5.6098213 4.7521286 -10.157482 10.614174 -10.157482l0 0c2.8150482 0 5.5148087 1.0701599 7.505348 2.9750595c1.9905472 1.9048958 3.1088257 4.488491 3.1088257 7.1824226l0 0c0 5.6098175 -4.7521286 10.157478 -10.614174 10.157478l0 0c-5.8620453 0 -10.614174 -4.547661 -10.614174 -10.157478z" fill-rule="evenodd"/><path fill="#000000" fill-opacity="0.0" d="m83.97254 61.435688l58.110237 -25.417324" fill-rule="evenodd"/><path stroke="#b7b7b7" stroke-width="3.0" stroke-linejoin="round" stroke-linecap="butt" d="m83.97254 61.435688l58.110237 -25.417324" fill-rule="evenodd"/><path fill="#000000" fill-opacity="0.0" d="m163.30708 36.003937l67.68504 0" fill-rule="evenodd"/><path stroke="#b7b7b7" stroke-width="3.0" stroke-linejoin="round" stroke-linecap="butt" d="m163.30708 36.003937l67.68504 0" fill-rule="evenodd"/><path fill="#000000" fill-opacity="0.0" d="m252.22835 36.003937l67.68504 0" fill-rule="evenodd"/><path stroke="#b7b7b7" stroke-width="3.0" stroke-linejoin="round" stroke-linecap="butt" d="m252.22835 36.003937l67.68504 0" fill-rule="evenodd"/><path fill="#000000" fill-opacity="0.0" d="m341.1496 36.003937l57.5748 25.417324" fill-rule="evenodd"/><path stroke="#b7b7b7" stroke-width="3.0" stroke-linejoin="round" stroke-linecap="butt" d="m341.1496 36.003937l57.5748 25.417324" fill-rule="evenodd"/><path fill="#b7b7b7" d="m142.34908 88.93307l0 0c0 -5.6098175 4.752136 -10.157478 10.6141815 -10.157478l0 0c2.8150482 0 5.514801 1.0701599 7.505356 2.9750595c1.9905396 1.9048996 3.1088104 4.488495 3.1088104 7.182419l0 0c0 5.609825 -4.752121 10.157486 -10.614166 10.157486l0 0c-5.8620453 0 -10.6141815 -4.547661 -10.6141815 -10.157486z" fill-rule="evenodd"/><path stroke="#b7b7b7" stroke-width="1.0" stroke-linejoin="round" stroke-linecap="butt" d="m142.34908 88.93307l0 0c0 -5.6098175 4.752136 -10.157478 10.6141815 -10.157478l0 0c2.8150482 0 5.514801 1.0701599 7.505356 2.9750595c1.9905396 1.9048996 3.1088104 4.488495 3.1088104 7.182419l0 0c0 5.609825 -4.752121 10.157486 -10.614166 10.157486l0 0c-5.8620453 0 -10.6141815 -4.547661 -10.6141815 -10.157486z" fill-rule="evenodd"/><path fill="#b7b7b7" d="m231.27034 88.93307l0 0c0 -5.6098175 4.752121 -10.157478 10.6141815 -10.157478l0 0c2.8150482 0 5.514801 1.0701599 7.5053406 2.9750595c1.9905548 1.9048996 3.1088257 4.488495 3.1088257 7.182419l0 0c0 5.609825 -4.752121 10.157486 -10.614166 10.157486l0 0c-5.8620605 0 -10.6141815 -4.547661 -10.6141815 -10.157486z" fill-rule="evenodd"/><path stroke="#b7b7b7" stroke-width="1.0" stroke-linejoin="round" stroke-linecap="butt" d="m231.27034 88.93307l0 0c0 -5.6098175 4.752121 -10.157478 10.6141815 -10.157478l0 0c2.8150482 0 5.514801 1.0701599 7.5053406 2.9750595c1.9905548 1.9048996 3.1088257 4.488495 3.1088257 7.182419l0 0c0 5.609825 -4.752121 10.157486 -10.614166 10.157486l0 0c-5.8620605 0 -10.6141815 -4.547661 -10.6141815 -10.157486z" fill-rule="evenodd"/><path fill="#b7b7b7" d="m320.1916 88.93307l0 0c0 -5.6098175 4.752136 -10.157478 10.614197 -10.157478l0 0c2.815033 0 5.514801 1.0701599 7.5053406 2.9750595c1.9905396 1.9048996 3.1088257 4.488495 3.1088257 7.182419l0 0c0 5.609825 -4.752136 10.157486 -10.614166 10.157486l0 0c-5.8620605 0 -10.614197 -4.547661 -10.614197 -10.157486z" fill-rule="evenodd"/><path stroke="#b7b7b7" stroke-width="1.0" stroke-linejoin="round" stroke-linecap="butt" d="m320.1916 88.93307l0 0c0 -5.6098175 4.752136 -10.157478 10.614197 -10.157478l0 0c2.815033 0 5.514801 1.0701599 7.5053406 2.9750595c1.9905396 1.9048996 3.1088257 4.488495 3.1088257 7.182419l0 0c0 5.609825 -4.752136 10.157486 -10.614166 10.157486l0 0c-5.8620605 0 -10.614197 -4.547661 -10.614197 -10.157486z" fill-rule="evenodd"/><path fill="#b7b7b7" d="m395.87665 121.54724l0 0c0 -5.6098175 4.7521057 -10.157478 10.614166 -10.157478l0 0c2.8150635 0 5.514801 1.0701599 7.5053406 2.9750595c1.9905701 1.904892 3.1088257 4.4884872 3.1088257 7.182419l0 0c0 5.609825 -4.7521057 10.157486 -10.614166 10.157486l0 0c-5.8620605 0 -10.614166 -4.547661 -10.614166 -10.157486z" fill-rule="evenodd"/><path stroke="#b7b7b7" stroke-width="1.0" stroke-linejoin="round" stroke-linecap="butt" d="m395.87665 121.54724l0 0c0 -5.6098175 4.7521057 -10.157478 10.614166 -10.157478l0 0c2.8150635 0 5.514801 1.0701599 7.5053406 2.9750595c1.9905701 1.904892 3.1088257 4.4884872 3.1088257 7.182419l0 0c0 5.609825 -4.7521057 10.157486 -10.614166 10.157486l0 0c-5.8620605 0 -10.614166 -4.547661 -10.614166 -10.157486z" fill-rule="evenodd"/><path fill="#b7b7b7" d="m66.12336 121.54724l0 0c0 -5.6098175 4.7521286 -10.157478 10.614174 -10.157478l0 0c2.8150558 0 5.5148087 1.0701599 7.505356 2.9750595c1.9905396 1.904892 3.108818 4.4884872 3.108818 7.182419l0 0c0 5.609825 -4.7521286 10.157486 -10.614174 10.157486l0 0c-5.8620453 0 -10.614174 -4.547661 -10.614174 -10.157486z" fill-rule="evenodd"/><path stroke="#b7b7b7" stroke-width="1.0" stroke-linejoin="round" stroke-linecap="butt" d="m66.12336 121.54724l0 0c0 -5.6098175 4.7521286 -10.157478 10.614174 -10.157478l0 0c2.8150558 0 5.5148087 1.0701599 7.505356 2.9750595c1.9905396 1.904892 3.108818 4.4884872 3.108818 7.182419l0 0c0 5.609825 -4.7521286 10.157486 -10.614174 10.157486l0 0c-5.8620453 0 -10.614174 -4.547661 -10.614174 -10.157486z" fill-rule="evenodd"/><path fill="#000000" fill-opacity="0.0" d="m84.24289 114.36482l58.11023 -25.417328" fill-rule="evenodd"/><path stroke="#b7b7b7" stroke-width="3.0" stroke-linejoin="round" stroke-linecap="butt" d="m84.24289 114.36482l58.11023 -25.417328" fill-rule="evenodd"/><path fill="#000000" fill-opacity="0.0" d="m163.57742 88.93307l67.68504 0" fill-rule="evenodd"/><path stroke="#b7b7b7" stroke-width="3.0" stroke-linejoin="round" stroke-linecap="butt" d="m163.57742 88.93307l67.68504 0" fill-rule="evenodd"/><path fill="#000000" fill-opacity="0.0" d="m252.49869 88.93307l67.68503 0" fill-rule="evenodd"/><path stroke="#b7b7b7" stroke-width="3.0" stroke-linejoin="round" stroke-linecap="butt" d="m252.49869 88.93307l67.68503 0" fill-rule="evenodd"/><path fill="#000000" fill-opacity="0.0" d="m341.41995 88.93307l57.5748 25.417328" fill-rule="evenodd"/><path stroke="#b7b7b7" stroke-width="3.0" stroke-linejoin="round" stroke-linecap="butt" d="m341.41995 88.93307l57.5748 25.417328" fill-rule="evenodd"/><path fill="#b7b7b7" d="m142.34908 152.0328l0 0c0 -5.6098175 4.752136 -10.157471 10.6141815 -10.157471l0 0c2.8150482 0 5.514801 1.0701599 7.505356 2.9750519c1.9905396 1.904892 3.1088104 4.488495 3.1088104 7.182419l0 0c0 5.6098175 -4.752121 10.157486 -10.614166 10.157486l0 0c-5.8620453 0 -10.6141815 -4.5476685 -10.6141815 -10.157486z" fill-rule="evenodd"/><path stroke="#b7b7b7" stroke-width="1.0" stroke-linejoin="round" stroke-linecap="butt" d="m142.34908 152.0328l0 0c0 -5.6098175 4.752136 -10.157471 10.6141815 -10.157471l0 0c2.8150482 0 5.514801 1.0701599 7.505356 2.9750519c1.9905396 1.904892 3.1088104 4.488495 3.1088104 7.182419l0 0c0 5.6098175 -4.752121 10.157486 -10.614166 10.157486l0 0c-5.8620453 0 -10.6141815 -4.5476685 -10.6141815 -10.157486z" fill-rule="evenodd"/><path fill="#b7b7b7" d="m231.27034 152.0328l0 0c0 -5.6098175 4.752121 -10.157471 10.6141815 -10.157471l0 0c2.8150482 0 5.514801 1.0701599 7.5053406 2.9750519c1.9905548 1.904892 3.1088257 4.488495 3.1088257 7.182419l0 0c0 5.6098175 -4.752121 10.157486 -10.614166 10.157486l0 0c-5.8620605 0 -10.6141815 -4.5476685 -10.6141815 -10.157486z" fill-rule="evenodd"/><path stroke="#b7b7b7" stroke-width="1.0" stroke-linejoin="round" stroke-linecap="butt" d="m231.27034 152.0328l0 0c0 -5.6098175 4.752121 -10.157471 10.6141815 -10.157471l0 0c2.8150482 0 5.514801 1.0701599 7.5053406 2.9750519c1.9905548 1.904892 3.1088257 4.488495 3.1088257 7.182419l0 0c0 5.6098175 -4.752121 10.157486 -10.614166 10.157486l0 0c-5.8620605 0 -10.6141815 -4.5476685 -10.6141815 -10.157486z" fill-rule="evenodd"/><path fill="#b7b7b7" d="m320.1916 152.0328l0 0c0 -5.6098175 4.752136 -10.157471 10.614197 -10.157471l0 0c2.815033 0 5.514801 1.0701599 7.5053406 2.9750519c1.9905396 1.904892 3.1088257 4.488495 3.1088257 7.182419l0 0c0 5.6098175 -4.752136 10.157486 -10.614166 10.157486l0 0c-5.8620605 0 -10.614197 -4.5476685 -10.614197 -10.157486z" fill-rule="evenodd"/><path stroke="#b7b7b7" stroke-width="1.0" stroke-linejoin="round" stroke-linecap="butt" d="m320.1916 152.0328l0 0c0 -5.6098175 4.752136 -10.157471 10.614197 -10.157471l0 0c2.815033 0 5.514801 1.0701599 7.5053406 2.9750519c1.9905396 1.904892 3.1088257 4.488495 3.1088257 7.182419l0 0c0 5.6098175 -4.752136 10.157486 -10.614166 10.157486l0 0c-5.8620605 0 -10.614197 -4.5476685 -10.614197 -10.157486z" fill-rule="evenodd"/><path fill="#b7b7b7" d="m395.87665 184.64699l0 0c0 -5.609833 4.7521057 -10.157486 10.614166 -10.157486l0 0c2.8150635 0 5.514801 1.0701599 7.5053406 2.9750519c1.9905701 1.9049072 3.1088257 4.488495 3.1088257 7.182434l0 0c0 5.6098175 -4.7521057 10.157471 -10.614166 10.157471l0 0c-5.8620605 0 -10.614166 -4.547653 -10.614166 -10.157471z" fill-rule="evenodd"/><path stroke="#b7b7b7" stroke-width="1.0" stroke-linejoin="round" stroke-linecap="butt" d="m395.87665 184.64699l0 0c0 -5.609833 4.7521057 -10.157486 10.614166 -10.157486l0 0c2.8150635 0 5.514801 1.0701599 7.5053406 2.9750519c1.9905701 1.9049072 3.1088257 4.488495 3.1088257 7.182434l0 0c0 5.6098175 -4.7521057 10.157471 -10.614166 10.157471l0 0c-5.8620605 0 -10.614166 -4.547653 -10.614166 -10.157471z" fill-rule="evenodd"/><path fill="#b7b7b7" d="m66.12336 184.64699l0 0c0 -5.609833 4.7521286 -10.157486 10.614174 -10.157486l0 0c2.8150558 0 5.5148087 1.0701599 7.505356 2.9750519c1.9905396 1.9049072 3.108818 4.488495 3.108818 7.182434l0 0c0 5.6098175 -4.7521286 10.157471 -10.614174 10.157471l0 0c-5.8620453 0 -10.614174 -4.547653 -10.614174 -10.157471z" fill-rule="evenodd"/><path stroke="#b7b7b7" stroke-width="1.0" stroke-linejoin="round" stroke-linecap="butt" d="m66.12336 184.64699l0 0c0 -5.609833 4.7521286 -10.157486 10.614174 -10.157486l0 0c2.8150558 0 5.5148087 1.0701599 7.505356 2.9750519c1.9905396 1.9049072 3.108818 4.488495 3.108818 7.182434l0 0c0 5.6098175 -4.7521286 10.157471 -10.614174 10.157471l0 0c-5.8620453 0 -10.614174 -4.547653 -10.614174 -10.157471z" fill-rule="evenodd"/><path fill="#000000" fill-opacity="0.0" d="m84.24289 177.46455l58.11023 -25.417313" fill-rule="evenodd"/><path stroke="#b7b7b7" stroke-width="3.0" stroke-linejoin="round" stroke-linecap="butt" d="m84.24289 177.46455l58.11023 -25.417313" fill-rule="evenodd"/><path fill="#000000" fill-opacity="0.0" d="m163.57742 152.0328l67.68504 0" fill-rule="evenodd"/><path stroke="#b7b7b7" stroke-width="3.0" stroke-linejoin="round" stroke-linecap="butt" d="m163.57742 152.0328l67.68504 0" fill-rule="evenodd"/><path fill="#000000" fill-opacity="0.0" d="m252.49869 152.0328l67.68503 0" fill-rule="evenodd"/><path stroke="#b7b7b7" stroke-width="3.0" stroke-linejoin="round" stroke-linecap="butt" d="m252.49869 152.0328l67.68503 0" fill-rule="evenodd"/><path fill="#000000" fill-opacity="0.0" d="m341.41995 152.0328l57.5748 25.417328" fill-rule="evenodd"/><path stroke="#b7b7b7" stroke-width="3.0" stroke-linejoin="round" stroke-linecap="butt" d="m341.41995 152.0328l57.5748 25.417328" fill-rule="evenodd"/><path fill="#000000" fill-opacity="0.0" d="m76.46719 78.77559l0.28346252 32.62992" fill-rule="evenodd"/><path stroke="#b7b7b7" stroke-width="2.0" stroke-linejoin="round" stroke-linecap="butt" d="m76.46719 78.77559l0.28346252 32.62992" fill-rule="evenodd"/><path fill="#000000" fill-opacity="0.0" d="m76.73753 131.70473l0 42.771652" fill-rule="evenodd"/><path stroke="#b7b7b7" stroke-width="2.0" stroke-linejoin="round" stroke-linecap="butt" d="m76.73753 131.70473l0 42.771652" fill-rule="evenodd"/><path fill="#000000" fill-opacity="0.0" d="m152.96326 99.09055l0 42.771645" fill-rule="evenodd"/><path stroke="#b7b7b7" stroke-width="2.0" stroke-linejoin="round" stroke-linecap="butt" d="m152.96326 99.09055l0 42.771645" fill-rule="evenodd"/><path fill="#000000" fill-opacity="0.0" d="m152.69292 46.16142l0.28346252 32.629917" fill-rule="evenodd"/><path stroke="#b7b7b7" stroke-width="2.0" stroke-linejoin="round" stroke-linecap="butt" d="m152.69292 46.16142l0.28346252 32.629917" fill-rule="evenodd"/><path fill="#000000" fill-opacity="0.0" d="m241.61417 46.16142l0.28347778 32.629917" fill-rule="evenodd"/><path stroke="#b7b7b7" stroke-width="2.0" stroke-linejoin="round" stroke-linecap="butt" d="m241.61417 46.16142l0.28347778 32.629917" fill-rule="evenodd"/><path fill="#000000" fill-opacity="0.0" d="m330.53543 46.16142l0.28347778 32.629917" fill-rule="evenodd"/><path stroke="#b7b7b7" stroke-width="2.0" stroke-linejoin="round" stroke-linecap="butt" d="m330.53543 46.16142l0.28347778 32.629917" fill-rule="evenodd"/><path fill="#000000" fill-opacity="0.0" d="m330.8058 99.09055l0 42.771645" fill-rule="evenodd"/><path stroke="#b7b7b7" stroke-width="2.0" stroke-linejoin="round" stroke-linecap="butt" d="m330.8058 99.09055l0 42.771645" fill-rule="evenodd"/><path fill="#000000" fill-opacity="0.0" d="m241.88452 99.09055l0 42.771645" fill-rule="evenodd"/><path stroke="#b7b7b7" stroke-width="2.0" stroke-linejoin="round" stroke-linecap="butt" d="m241.88452 99.09055l0 42.771645" fill-rule="evenodd"/><path fill="#000000" fill-opacity="0.0" d="m406.4908 131.70473l0 42.771652" fill-rule="evenodd"/><path stroke="#b7b7b7" stroke-width="2.0" stroke-linejoin="round" stroke-linecap="butt" d="m406.4908 131.70473l0 42.771652" fill-rule="evenodd"/><path fill="#000000" fill-opacity="0.0" d="m406.22046 78.77559l0.28347778 32.62992" fill-rule="evenodd"/><path stroke="#b7b7b7" stroke-width="2.0" stroke-linejoin="round" stroke-linecap="butt" d="m406.22046 78.77559l0.28347778 32.62992" fill-rule="evenodd"/><path fill="#666666" d="m90.073494 78.020996l0 0c0 -5.6098175 4.752121 -10.157478 10.614174 -10.157478l0 0c2.8150482 0 5.5148087 1.0701599 7.505348 2.9750595c1.9905472 1.904892 3.108818 4.4884872 3.108818 7.182419l0 0c0 5.609825 -4.752121 10.157478 -10.614166 10.157478l0 0c-5.862053 0 -10.614174 -4.547653 -10.614174 -10.157478z" fill-rule="evenodd"/><path stroke="#666666" stroke-width="1.0" stroke-linejoin="round" stroke-linecap="butt" d="m90.073494 78.020996l0 0c0 -5.6098175 4.752121 -10.157478 10.614174 -10.157478l0 0c2.8150482 0 5.5148087 1.0701599 7.505348 2.9750595c1.9905472 1.904892 3.108818 4.4884872 3.108818 7.182419l0 0c0 5.609825 -4.752121 10.157478 -10.614166 10.157478l0 0c-5.862053 0 -10.614174 -4.547653 -10.614174 -10.157478z" fill-rule="evenodd"/><path fill="#666666" d="m178.99475 78.020996l0 0c0 -5.6098175 4.752121 -10.157478 10.614166 -10.157478l0 0c2.8150635 0 5.5148163 1.0701599 7.505356 2.9750595c1.9905548 1.904892 3.1088257 4.4884872 3.1088257 7.182419l0 0c0 5.609825 -4.752136 10.157478 -10.6141815 10.157478l0 0c-5.8620453 0 -10.614166 -4.547653 -10.614166 -10.157478z" fill-rule="evenodd"/><path stroke="#666666" stroke-width="1.0" stroke-linejoin="round" stroke-linecap="butt" d="m178.99475 78.020996l0 0c0 -5.6098175 4.752121 -10.157478 10.614166 -10.157478l0 0c2.8150635 0 5.5148163 1.0701599 7.505356 2.9750595c1.9905548 1.904892 3.1088257 4.4884872 3.1088257 7.182419l0 0c0 5.609825 -4.752136 10.157478 -10.6141815 10.157478l0 0c-5.8620453 0 -10.614166 -4.547653 -10.614166 -10.157478z" fill-rule="evenodd"/><path fill="#666666" d="m267.91602 78.020996l0 0c0 -5.6098175 4.752136 -10.157478 10.614166 -10.157478l0 0c2.8150635 0 5.514801 1.0701599 7.5053406 2.9750595c1.9905701 1.904892 3.1088257 4.4884872 3.1088257 7.182419l0 0c0 5.609825 -4.7521057 10.157478 -10.614166 10.157478l0 0c-5.86203 0 -10.614166 -4.547653 -10.614166 -10.157478z" fill-rule="evenodd"/><path stroke="#666666" stroke-width="1.0" stroke-linejoin="round" stroke-linecap="butt" d="m267.91602 78.020996l0 0c0 -5.6098175 4.752136 -10.157478 10.614166 -10.157478l0 0c2.8150635 0 5.514801 1.0701599 7.5053406 2.9750595c1.9905701 1.904892 3.1088257 4.4884872 3.1088257 7.182419l0 0c0 5.609825 -4.7521057 10.157478 -10.614166 10.157478l0 0c-5.86203 0 -10.614166 -4.547653 -10.614166 -10.157478z" fill-rule="evenodd"/><path fill="#666666" d="m343.60104 110.63517l0 0c0 -5.6098175 4.752136 -10.157478 10.614166 -10.157478l0 0c2.8150635 0 5.5148315 1.0701599 7.505371 2.9750595c1.9905396 1.904892 3.1088257 4.4884872 3.1088257 7.182419l0 0c0 5.609825 -4.752136 10.157478 -10.614197 10.157478l0 0c-5.86203 0 -10.614166 -4.547653 -10.614166 -10.157478z" fill-rule="evenodd"/><path stroke="#666666" stroke-width="1.0" stroke-linejoin="round" stroke-linecap="butt" d="m343.60104 110.63517l0 0c0 -5.6098175 4.752136 -10.157478 10.614166 -10.157478l0 0c2.8150635 0 5.5148315 1.0701599 7.505371 2.9750595c1.9905396 1.904892 3.1088257 4.4884872 3.1088257 7.182419l0 0c0 5.609825 -4.752136 10.157478 -10.614197 10.157478l0 0c-5.86203 0 -10.614166 -4.547653 -10.614166 -10.157478z" fill-rule="evenodd"/><path fill="#666666" d="m13.847769 110.63517l0 0c0 -5.6098175 4.7521267 -10.157478 10.614174 -10.157478l0 0c2.815054 0 5.5148106 1.0701599 7.505354 2.9750595c1.9905434 1.904892 3.108818 4.4884872 3.108818 7.182419l0 0c0 5.609825 -4.7521267 10.157478 -10.614172 10.157478l0 0c-5.862047 0 -10.614174 -4.547653 -10.614174 -10.157478z" fill-rule="evenodd"/><path stroke="#666666" stroke-width="1.0" stroke-linejoin="round" stroke-linecap="butt" d="m13.847769 110.63517l0 0c0 -5.6098175 4.7521267 -10.157478 10.614174 -10.157478l0 0c2.815054 0 5.5148106 1.0701599 7.505354 2.9750595c1.9905434 1.904892 3.108818 4.4884872 3.108818 7.182419l0 0c0 5.609825 -4.7521267 10.157478 -10.614172 10.157478l0 0c-5.862047 0 -10.614174 -4.547653 -10.614174 -10.157478z" fill-rule="evenodd"/><path fill="#000000" fill-opacity="0.0" d="m31.967297 103.45275l58.110233 -25.417328" fill-rule="evenodd"/><path stroke="#666666" stroke-width="3.0" stroke-linejoin="round" stroke-linecap="butt" d="m31.967297 103.45275l58.110233 -25.417328" fill-rule="evenodd"/><path fill="#000000" fill-opacity="0.0" d="m111.301834 78.020996l67.68504 0" fill-rule="evenodd"/><path stroke="#666666" stroke-width="3.0" stroke-linejoin="round" stroke-linecap="butt" d="m111.301834 78.020996l67.68504 0" fill-rule="evenodd"/><path fill="#000000" fill-opacity="0.0" d="m200.2231 78.020996l67.68504 0" fill-rule="evenodd"/><path stroke="#666666" stroke-width="3.0" stroke-linejoin="round" stroke-linecap="butt" d="m200.2231 78.020996l67.68504 0" fill-rule="evenodd"/><path fill="#000000" fill-opacity="0.0" d="m289.14435 78.020996l57.5748 25.417328" fill-rule="evenodd"/><path stroke="#666666" stroke-width="3.0" stroke-linejoin="round" stroke-linecap="butt" d="m289.14435 78.020996l57.5748 25.417328" fill-rule="evenodd"/><path fill="#666666" d="m90.343834 130.95013l0 0c0 -5.609825 4.7521286 -10.157486 10.614174 -10.157486l0 0c2.8150482 0 5.5148087 1.0701599 7.505348 2.9750595c1.9905472 1.9048996 3.1088257 4.4884872 3.1088257 7.1824265l0 0c0 5.6098175 -4.7521286 10.157471 -10.614174 10.157471l0 0c-5.8620453 0 -10.614174 -4.547653 -10.614174 -10.157471z" fill-rule="evenodd"/><path stroke="#666666" stroke-width="1.0" stroke-linejoin="round" stroke-linecap="butt" d="m90.343834 130.95013l0 0c0 -5.609825 4.7521286 -10.157486 10.614174 -10.157486l0 0c2.8150482 0 5.5148087 1.0701599 7.505348 2.9750595c1.9905472 1.9048996 3.1088257 4.4884872 3.1088257 7.1824265l0 0c0 5.6098175 -4.7521286 10.157471 -10.614174 10.157471l0 0c-5.8620453 0 -10.614174 -4.547653 -10.614174 -10.157471z" fill-rule="evenodd"/><path fill="#666666" d="m179.26509 130.95013l0 0c0 -5.609825 4.752121 -10.157486 10.6141815 -10.157486l0 0c2.8150482 0 5.514801 1.0701599 7.5053406 2.9750595c1.9905548 1.9048996 3.1088257 4.4884872 3.1088257 7.1824265l0 0c0 5.6098175 -4.752121 10.157471 -10.614166 10.157471l0 0c-5.8620605 0 -10.6141815 -4.547653 -10.6141815 -10.157471z" fill-rule="evenodd"/><path stroke="#666666" stroke-width="1.0" stroke-linejoin="round" stroke-linecap="butt" d="m179.26509 130.95013l0 0c0 -5.609825 4.752121 -10.157486 10.6141815 -10.157486l0 0c2.8150482 0 5.514801 1.0701599 7.5053406 2.9750595c1.9905548 1.9048996 3.1088257 4.4884872 3.1088257 7.1824265l0 0c0 5.6098175 -4.752121 10.157471 -10.614166 10.157471l0 0c-5.8620605 0 -10.6141815 -4.547653 -10.6141815 -10.157471z" fill-rule="evenodd"/><path fill="#666666" d="m268.18634 130.95013l0 0c0 -5.609825 4.752136 -10.157486 10.614197 -10.157486l0 0c2.815033 0 5.514801 1.0701599 7.5053406 2.9750595c1.9905396 1.9048996 3.1088257 4.4884872 3.1088257 7.1824265l0 0c0 5.6098175 -4.752136 10.157471 -10.614166 10.157471l0 0c-5.8620605 0 -10.614197 -4.547653 -10.614197 -10.157471z" fill-rule="evenodd"/><path stroke="#666666" stroke-width="1.0" stroke-linejoin="round" stroke-linecap="butt" d="m268.18634 130.95013l0 0c0 -5.609825 4.752136 -10.157486 10.614197 -10.157486l0 0c2.815033 0 5.514801 1.0701599 7.5053406 2.9750595c1.9905396 1.9048996 3.1088257 4.4884872 3.1088257 7.1824265l0 0c0 5.6098175 -4.752136 10.157471 -10.614166 10.157471l0 0c-5.8620605 0 -10.614197 -4.547653 -10.614197 -10.157471z" fill-rule="evenodd"/><path fill="#666666" d="m343.8714 163.5643l0 0c0 -5.6098175 4.7521057 -10.157471 10.614166 -10.157471l0 0c2.8150635 0 5.514801 1.0701599 7.5053406 2.9750519c1.9905701 1.904892 3.1088257 4.488495 3.1088257 7.182419l0 0c0 5.609833 -4.752136 10.157486 -10.614166 10.157486l0 0c-5.8620605 0 -10.614166 -4.547653 -10.614166 -10.157486z" fill-rule="evenodd"/><path stroke="#666666" stroke-width="1.0" stroke-linejoin="round" stroke-linecap="butt" d="m343.8714 163.5643l0 0c0 -5.6098175 4.7521057 -10.157471 10.614166 -10.157471l0 0c2.8150635 0 5.514801 1.0701599 7.5053406 2.9750519c1.9905701 1.904892 3.1088257 4.488495 3.1088257 7.182419l0 0c0 5.609833 -4.752136 10.157486 -10.614166 10.157486l0 0c-5.8620605 0 -10.614166 -4.547653 -10.614166 -10.157486z" fill-rule="evenodd"/><path fill="#666666" d="m14.118111 163.5643l0 0c0 -5.6098175 4.7521267 -10.157471 10.614172 -10.157471l0 0c2.815054 0 5.5148106 1.0701599 7.505354 2.9750519c1.9905434 1.904892 3.1088219 4.488495 3.1088219 7.182419l0 0c0 5.609833 -4.7521286 10.157486 -10.614176 10.157486l0 0c-5.8620453 0 -10.614172 -4.547653 -10.614172 -10.157486z" fill-rule="evenodd"/><path stroke="#666666" stroke-width="1.0" stroke-linejoin="round" stroke-linecap="butt" d="m14.118111 163.5643l0 0c0 -5.6098175 4.7521267 -10.157471 10.614172 -10.157471l0 0c2.815054 0 5.5148106 1.0701599 7.505354 2.9750519c1.9905434 1.904892 3.1088219 4.488495 3.1088219 7.182419l0 0c0 5.609833 -4.7521286 10.157486 -10.614176 10.157486l0 0c-5.8620453 0 -10.614172 -4.547653 -10.614172 -10.157486z" fill-rule="evenodd"/><path fill="#000000" fill-opacity="0.0" d="m32.237637 156.38188l58.110233 -25.417328" fill-rule="evenodd"/><path stroke="#666666" stroke-width="3.0" stroke-linejoin="round" stroke-linecap="butt" d="m32.237637 156.38188l58.110233 -25.417328" fill-rule="evenodd"/><path fill="#000000" fill-opacity="0.0" d="m111.57218 130.95013l67.685036 0" fill-rule="evenodd"/><path stroke="#666666" stroke-width="3.0" stroke-linejoin="round" stroke-linecap="butt" d="m111.57218 130.95013l67.685036 0" fill-rule="evenodd"/><path fill="#000000" fill-opacity="0.0" d="m200.49344 130.95013l67.68503 0" fill-rule="evenodd"/><path stroke="#666666" stroke-width="3.0" stroke-linejoin="round" stroke-linecap="butt" d="m200.49344 130.95013l67.68503 0" fill-rule="evenodd"/><path fill="#000000" fill-opacity="0.0" d="m289.4147 130.95013l57.5748 25.417313" fill-rule="evenodd"/><path stroke="#666666" stroke-width="3.0" stroke-linejoin="round" stroke-linecap="butt" d="m289.4147 130.95013l57.5748 25.417313" fill-rule="evenodd"/><path fill="#666666" d="m90.343834 194.04987l0 0c0 -5.6098175 4.7521286 -10.157471 10.614174 -10.157471l0 0c2.8150482 0 5.5148087 1.0701599 7.505348 2.9750519c1.9905472 1.904892 3.1088257 4.488495 3.1088257 7.182419l0 0c0 5.6098175 -4.7521286 10.157486 -10.614174 10.157486l0 0c-5.8620453 0 -10.614174 -4.5476685 -10.614174 -10.157486z" fill-rule="evenodd"/><path stroke="#666666" stroke-width="1.0" stroke-linejoin="round" stroke-linecap="butt" d="m90.343834 194.04987l0 0c0 -5.6098175 4.7521286 -10.157471 10.614174 -10.157471l0 0c2.8150482 0 5.5148087 1.0701599 7.505348 2.9750519c1.9905472 1.904892 3.1088257 4.488495 3.1088257 7.182419l0 0c0 5.6098175 -4.7521286 10.157486 -10.614174 10.157486l0 0c-5.8620453 0 -10.614174 -4.5476685 -10.614174 -10.157486z" fill-rule="evenodd"/><path fill="#666666" d="m179.26509 194.04987l0 0c0 -5.6098175 4.752121 -10.157471 10.6141815 -10.157471l0 0c2.8150482 0 5.514801 1.0701599 7.5053406 2.9750519c1.9905548 1.904892 3.1088257 4.488495 3.1088257 7.182419l0 0c0 5.6098175 -4.752121 10.157486 -10.614166 10.157486l0 0c-5.8620605 0 -10.6141815 -4.5476685 -10.6141815 -10.157486z" fill-rule="evenodd"/><path stroke="#666666" stroke-width="1.0" stroke-linejoin="round" stroke-linecap="butt" d="m179.26509 194.04987l0 0c0 -5.6098175 4.752121 -10.157471 10.6141815 -10.157471l0 0c2.8150482 0 5.514801 1.0701599 7.5053406 2.9750519c1.9905548 1.904892 3.1088257 4.488495 3.1088257 7.182419l0 0c0 5.6098175 -4.752121 10.157486 -10.614166 10.157486l0 0c-5.8620605 0 -10.6141815 -4.5476685 -10.6141815 -10.157486z" fill-rule="evenodd"/><path fill="#666666" d="m268.18634 194.04987l0 0c0 -5.6098175 4.752136 -10.157471 10.614197 -10.157471l0 0c2.815033 0 5.514801 1.0701599 7.5053406 2.9750519c1.9905396 1.904892 3.1088257 4.488495 3.1088257 7.182419l0 0c0 5.6098175 -4.752136 10.157486 -10.614166 10.157486l0 0c-5.8620605 0 -10.614197 -4.5476685 -10.614197 -10.157486z" fill-rule="evenodd"/><path stroke="#666666" stroke-width="1.0" stroke-linejoin="round" stroke-linecap="butt" d="m268.18634 194.04987l0 0c0 -5.6098175 4.752136 -10.157471 10.614197 -10.157471l0 0c2.815033 0 5.514801 1.0701599 7.5053406 2.9750519c1.9905396 1.904892 3.1088257 4.488495 3.1088257 7.182419l0 0c0 5.6098175 -4.752136 10.157486 -10.614166 10.157486l0 0c-5.8620605 0 -10.614197 -4.5476685 -10.614197 -10.157486z" fill-rule="evenodd"/><path fill="#666666" d="m343.8714 226.66405l0 0c0 -5.609833 4.7521057 -10.157486 10.614166 -10.157486l0 0c2.8150635 0 5.514801 1.0701599 7.5053406 2.9750519c1.9905701 1.9049072 3.1088257 4.488495 3.1088257 7.182434l0 0c0 5.6098175 -4.752136 10.157471 -10.614166 10.157471l0 0c-5.8620605 0 -10.614166 -4.547653 -10.614166 -10.157471z" fill-rule="evenodd"/><path stroke="#666666" stroke-width="1.0" stroke-linejoin="round" stroke-linecap="butt" d="m343.8714 226.66405l0 0c0 -5.609833 4.7521057 -10.157486 10.614166 -10.157486l0 0c2.8150635 0 5.514801 1.0701599 7.5053406 2.9750519c1.9905701 1.9049072 3.1088257 4.488495 3.1088257 7.182434l0 0c0 5.6098175 -4.752136 10.157471 -10.614166 10.157471l0 0c-5.8620605 0 -10.614166 -4.547653 -10.614166 -10.157471z" fill-rule="evenodd"/><path fill="#666666" d="m14.118111 226.66405l0 0c0 -5.609833 4.7521267 -10.157486 10.614172 -10.157486l0 0c2.815054 0 5.5148106 1.0701599 7.505354 2.9750519c1.9905434 1.9049072 3.1088219 4.488495 3.1088219 7.182434l0 0c0 5.6098175 -4.7521286 10.157471 -10.614176 10.157471l0 0c-5.8620453 0 -10.614172 -4.547653 -10.614172 -10.157471z" fill-rule="evenodd"/><path stroke="#666666" stroke-width="1.0" stroke-linejoin="round" stroke-linecap="butt" d="m14.118111 226.66405l0 0c0 -5.609833 4.7521267 -10.157486 10.614172 -10.157486l0 0c2.815054 0 5.5148106 1.0701599 7.505354 2.9750519c1.9905434 1.9049072 3.1088219 4.488495 3.1088219 7.182434l0 0c0 5.6098175 -4.7521286 10.157471 -10.614176 10.157471l0 0c-5.8620453 0 -10.614172 -4.547653 -10.614172 -10.157471z" fill-rule="evenodd"/><path fill="#000000" fill-opacity="0.0" d="m32.237637 219.48161l58.110233 -25.417313" fill-rule="evenodd"/><path stroke="#666666" stroke-width="3.0" stroke-linejoin="round" stroke-linecap="butt" d="m32.237637 219.48161l58.110233 -25.417313" fill-rule="evenodd"/><path fill="#000000" fill-opacity="0.0" d="m111.57218 194.04987l67.685036 0" fill-rule="evenodd"/><path stroke="#666666" stroke-width="3.0" stroke-linejoin="round" stroke-linecap="butt" d="m111.57218 194.04987l67.685036 0" fill-rule="evenodd"/><path fill="#000000" fill-opacity="0.0" d="m200.49344 194.04987l67.68503 0" fill-rule="evenodd"/><path stroke="#666666" stroke-width="3.0" stroke-linejoin="round" stroke-linecap="butt" d="m200.49344 194.04987l67.68503 0" fill-rule="evenodd"/><path fill="#000000" fill-opacity="0.0" d="m289.4147 194.04987l57.5748 25.417328" fill-rule="evenodd"/><path stroke="#666666" stroke-width="3.0" stroke-linejoin="round" stroke-linecap="butt" d="m289.4147 194.04987l57.5748 25.417328" fill-rule="evenodd"/><path fill="#000000" fill-opacity="0.0" d="m24.461943 120.79265l0.28346443 32.62993" fill-rule="evenodd"/><path stroke="#666666" stroke-width="2.0" stroke-linejoin="round" stroke-linecap="butt" d="m24.461943 120.79265l0.28346443 32.62993" fill-rule="evenodd"/><path fill="#000000" fill-opacity="0.0" d="m24.732283 173.72179l0 42.771652" fill-rule="evenodd"/><path stroke="#666666" stroke-width="2.0" stroke-linejoin="round" stroke-linecap="butt" d="m24.732283 173.72179l0 42.771652" fill-rule="evenodd"/><path fill="#000000" fill-opacity="0.0" d="m100.95801 141.1076l0 42.771667" fill-rule="evenodd"/><path stroke="#666666" stroke-width="2.0" stroke-linejoin="round" stroke-linecap="butt" d="m100.95801 141.1076l0 42.771667" fill-rule="evenodd"/><path fill="#000000" fill-opacity="0.0" d="m100.68767 88.178474l0.28346252 32.62992" fill-rule="evenodd"/><path stroke="#666666" stroke-width="2.0" stroke-linejoin="round" stroke-linecap="butt" d="m100.68767 88.178474l0.28346252 32.62992" fill-rule="evenodd"/><path fill="#000000" fill-opacity="0.0" d="m189.60892 88.178474l0.28347778 32.62992" fill-rule="evenodd"/><path stroke="#666666" stroke-width="2.0" stroke-linejoin="round" stroke-linecap="butt" d="m189.60892 88.178474l0.28347778 32.62992" fill-rule="evenodd"/><path fill="#000000" fill-opacity="0.0" d="m278.53018 88.178474l0.28347778 32.62992" fill-rule="evenodd"/><path stroke="#666666" stroke-width="2.0" stroke-linejoin="round" stroke-linecap="butt" d="m278.53018 88.178474l0.28347778 32.62992" fill-rule="evenodd"/><path fill="#000000" fill-opacity="0.0" d="m278.80054 141.1076l0 42.771667" fill-rule="evenodd"/><path stroke="#666666" stroke-width="2.0" stroke-linejoin="round" stroke-linecap="butt" d="m278.80054 141.1076l0 42.771667" fill-rule="evenodd"/><path fill="#000000" fill-opacity="0.0" d="m189.87927 141.1076l0 42.771667" fill-rule="evenodd"/><path stroke="#666666" stroke-width="2.0" stroke-linejoin="round" stroke-linecap="butt" d="m189.87927 141.1076l0 42.771667" fill-rule="evenodd"/><path fill="#000000" fill-opacity="0.0" d="m354.48557 173.72179l0 42.771652" fill-rule="evenodd"/><path stroke="#666666" stroke-width="2.0" stroke-linejoin="round" stroke-linecap="butt" d="m354.48557 173.72179l0 42.771652" fill-rule="evenodd"/><path fill="#000000" fill-opacity="0.0" d="m354.2152 120.79265l0.28347778 32.62993" fill-rule="evenodd"/><path stroke="#666666" stroke-width="2.0" stroke-linejoin="round" stroke-linecap="butt" d="m354.2152 120.79265l0.28347778 32.62993" fill-rule="evenodd"/><path fill="#000000" fill-opacity="0.0" d="m323.3004 159.21523l-37.007874 27.65355" fill-rule="evenodd"/><path stroke="#999999" stroke-width="2.0" stroke-linejoin="round" stroke-linecap="butt" d="m323.3004 159.21523l-37.007874 27.65355" fill-rule="evenodd"/><path fill="#000000" fill-opacity="0.0" d="m361.9909 219.48161l37.007874 -27.653534" fill-rule="evenodd"/><path stroke="#999999" stroke-width="2.0" stroke-linejoin="round" stroke-linecap="butt" d="m361.9909 219.48161l37.007874 -27.653534" fill-rule="evenodd"/><path fill="#000000" fill-opacity="0.0" d="m197.38461 186.86745l37.007874 -27.65355" fill-rule="evenodd"/><path stroke="#999999" stroke-width="2.0" stroke-linejoin="round" stroke-linecap="butt" d="m197.38461 186.86745l37.007874 -27.65355" fill-rule="evenodd"/><path fill="#000000" fill-opacity="0.0" d="m108.463356 186.86745l37.00788 -27.65355" fill-rule="evenodd"/><path stroke="#999999" stroke-width="2.0" stroke-linejoin="round" stroke-linecap="butt" d="m108.463356 186.86745l37.00788 -27.65355" fill-rule="evenodd"/><path fill="#000000" fill-opacity="0.0" d="m32.237637 219.48161l37.007877 -27.653534" fill-rule="evenodd"/><path stroke="#999999" stroke-width="2.0" stroke-linejoin="round" stroke-linecap="butt" d="m32.237637 219.48161l37.007877 -27.653534" fill-rule="evenodd"/><path fill="#000000" fill-opacity="0.0" d="m421.99475 -13.244095l543.5591 0l0 232.44095l-543.5591 0z" fill-rule="evenodd"/><path fill="#434343" d="m491.651 157.03403q-3.71875 -13.4375 -7.640625 -25.75q-3.921875 -12.328125 -7.5625 -23.234375q-3.640625 -10.921875 -7.0 -19.875q-3.359375 -8.96875 -6.15625 -15.6875q-0.75 10.640625 -1.21875 23.421875q-0.46875 12.78125 -0.9375 26.21875q-0.46875 13.4375 -0.75 26.984375q-0.265625 13.53125 -0.453125 25.84375l-16.0625 0q0.5625 -16.796875 1.125 -33.875q0.5625 -17.078125 1.390625 -33.59375q0.84375 -16.53125 1.875 -32.203125q1.03125 -15.6875 2.328125 -29.6875l16.625 0q3.359375 8.03125 7.640625 19.140625q4.296875 11.109375 8.6875 23.25q4.390625 12.125 8.484375 24.265625q4.109375 12.125 7.09375 22.203125q2.984375 -10.078125 6.90625 -22.203125q3.921875 -12.140625 8.21875 -24.265625q4.296875 -12.140625 8.484375 -23.25q4.203125 -11.109375 7.5625 -19.140625l16.609375 0q1.3125 14.0 2.328125 29.6875q1.03125 15.671875 1.875 32.203125q0.84375 16.515625 1.40625 33.59375q0.5625 17.078125 1.125 33.875l-16.0625 0q-0.375 -12.3125 -0.65625 -25.9375q-0.28125 -13.640625 -0.75 -27.359375q-0.453125 -13.71875 -1.015625 -26.6875q-0.5625 -12.96875 -1.3125 -23.796875q-1.671875 4.671875 -4.203125 11.671875q-2.515625 7.0 -5.21875 15.21875q-2.703125 8.203125 -5.609375 16.890625q-2.890625 8.671875 -5.40625 16.703125q-2.515625 8.015625 -4.484375 14.640625q-1.953125 6.625 -3.078125 10.734375l-14.1875 0zm177.32489 -46.65625q0 15.109375 -2.703125 27.53125q-2.703125 12.40625 -8.40625 21.28125q-5.6875 8.859375 -14.375 13.71875q-8.671875 4.84375 -20.421875 4.84375q-11.765625 0 -20.453125 -4.84375q-8.671875 -4.859375 -14.375 -13.71875q-5.6875 -8.875 -8.484375 -21.28125q-2.796875 -12.421875 -2.796875 -27.53125q0 -15.125 2.796875 -27.625q2.796875 -12.515625 8.484375 -21.375q5.703125 -8.875 14.375 -13.8125q8.6875 -4.953125 20.453125 -4.953125q11.75 0 20.421875 4.953125q8.6875 4.9375 14.375 13.8125q5.703125 8.859375 8.40625 21.375q2.703125 12.5 2.703125 27.625zm-17.90625 0q0 -11.765625 -1.5 -21.46875q-1.5 -9.703125 -4.859375 -16.703125q-3.359375 -7.0 -8.6875 -10.921875q-5.3125 -3.921875 -12.953125 -3.921875q-7.65625 0 -12.984375 3.921875q-5.3125 3.921875 -8.671875 10.921875q-3.359375 7.0 -4.953125 16.703125q-1.578125 9.703125 -1.578125 21.46875q0 11.75 1.578125 21.46875q1.59375 9.703125 4.953125 16.609375q3.359375 6.90625 8.671875 10.734375q5.328125 3.8125 12.984375 3.8125q7.640625 0 12.953125 -3.8125q5.328125 -3.828125 8.6875 -10.734375q3.359375 -6.90625 4.859375 -16.609375q1.5 -9.71875 1.5 -21.46875zm107.50519 64.578125q-4.484375 -11.015625 -10.171875 -23.796875q-5.6875 -12.78125 -11.953125 -25.75q-6.25 -12.984375 -12.78125 -25.765625q-6.53125 -12.796875 -12.875 -23.796875l0 99.109375l-15.6875 0l0 -129.35938l14.0 0q7.09375 11.578125 13.71875 23.71875q6.640625 12.125 12.609375 23.984375q5.96875 11.84375 11.28125 23.328125q5.328125 11.484375 9.8125 21.75l0 -92.78125l15.671875 0l0 129.35938l-13.625 0zm44.978516 0l0 -129.35938l58.0625 0l0 14.375l-41.25 0l0 40.140625l37.328125 0l0 14.0l-37.328125 0l0 46.46875l44.234375 0l0 14.375l-61.046875 0zm146.34961 -129.35938l0 14.375l-28.75 0l0 114.984375l-16.796875 0l0 -114.984375l-28.75 0l0 -14.375l74.296875 0z" fill-rule="nonzero"/><path fill="#000000" fill-opacity="0.0" d="m421.99475 166.81102l543.5591 0l0 67.086624l-543.5591 0z" fill-rule="evenodd"/><path fill="#333333" d="m471.09454 210.36726q-0.796875 -2.875 -1.640625 -5.515625q-0.84375 -2.640625 -1.625 -4.984375q-0.78125 -2.34375 -1.5 -4.25q-0.71875 -1.921875 -1.3125 -3.359375q-0.15625 2.265625 -0.265625 5.015625q-0.09375 2.734375 -0.203125 5.625q-0.09375 2.875 -0.15625 5.78125q-0.0625 2.890625 -0.09375 5.53125l-3.4375 0q0.109375 -3.59375 0.234375 -7.25q0.125 -3.671875 0.296875 -7.203125q0.1875 -3.546875 0.40625 -6.90625q0.21875 -3.359375 0.5 -6.359375l3.5625 0q0.71875 1.71875 1.625 4.109375q0.921875 2.375 1.859375 4.96875q0.953125 2.59375 1.828125 5.203125q0.875 2.59375 1.515625 4.75q0.640625 -2.15625 1.484375 -4.75q0.84375 -2.609375 1.765625 -5.203125q0.921875 -2.59375 1.8125 -4.96875q0.90625 -2.390625 1.625 -4.109375l3.5625 0q0.28125 3.0 0.5 6.359375q0.21875 3.359375 0.390625 6.90625q0.1875 3.53125 0.296875 7.203125q0.125 3.65625 0.25 7.25l-3.4375 0q-0.078125 -2.640625 -0.140625 -5.5625q-0.0625 -2.921875 -0.171875 -5.859375q-0.09375 -2.9375 -0.21875 -5.71875q-0.109375 -2.78125 -0.265625 -5.09375q-0.359375 1.0 -0.90625 2.5q-0.546875 1.5 -1.125 3.265625q-0.578125 1.75 -1.203125 3.609375q-0.609375 1.859375 -1.15625 3.578125q-0.53125 1.71875 -0.953125 3.140625q-0.421875 1.421875 -0.65625 2.296875l-3.046875 0zm39.964966 3.25q-0.53125 0.1875 -1.265625 0.375q-0.734375 0.171875 -1.5625 0.3125q-0.8125 0.140625 -1.640625 0.234375q-0.8125 0.109375 -1.5 0.109375q-1.640625 0 -3.0 -0.375q-1.359375 -0.375 -2.328125 -1.328125q-0.953125 -0.96875 -1.46875 -2.625q-0.515625 -1.671875 -0.515625 -4.1875l0 -12.921875l3.4375 0l0 12.796875q0 3.078125 0.9375 4.34375q0.9375 1.265625 2.859375 1.265625q0.640625 0 1.28125 -0.0625q0.640625 -0.0625 1.328125 -0.265625l0 -18.078125l3.4375 0l0 20.40625zm19.4375 1.0q-2.96875 -0.09375 -4.25 -1.46875q-1.265625 -1.375 -1.265625 -4.375l0 -25.0l3.4375 -0.609375l0 25.6875q0 1.40625 0.546875 2.03125q0.5625 0.609375 1.96875 0.84375l-0.4375 2.890625zm15.2699585 -21.40625l5.28125 0l0 2.953125l-5.28125 0l0 11.5625q0 2.171875 0.78125 3.03125q0.78125 0.859375 2.109375 0.859375q0.671875 0 1.296875 -0.203125q0.625 -0.203125 1.0625 -0.484375l0.671875 2.765625q-1.640625 0.953125 -3.46875 0.953125q-2.96875 0 -4.4375 -1.65625q-1.453125 -1.65625 -1.453125 -5.5l0 -19.921875l3.4375 -0.59375l0 6.234375zm20.889954 21.0l-3.4375 0l0 -21.0l3.4375 0l0 21.0zm-1.71875 -24.71875q-0.921875 0 -1.59375 -0.609375q-0.65625 -0.625 -0.65625 -1.671875q0 -1.046875 0.65625 -1.65625q0.671875 -0.625 1.59375 -0.625q0.921875 0 1.578125 0.625q0.65625 0.609375 0.65625 1.65625q0 1.046875 -0.65625 1.671875q-0.65625 0.609375 -1.578125 0.609375zm13.589355 11.125l7.40625 0l0 3.234375l-7.40625 0l0 -3.234375zm38.119995 -0.25q0 3.25 -0.578125 5.90625q-0.578125 2.65625 -1.796875 4.5625q-1.21875 1.890625 -3.078125 2.9375q-1.859375 1.03125 -4.375 1.03125q-2.53125 0 -4.390625 -1.03125q-1.859375 -1.046875 -3.078125 -2.9375q-1.21875 -1.90625 -1.828125 -4.5625q-0.59375 -2.65625 -0.59375 -5.90625q0 -3.234375 0.59375 -5.90625q0.609375 -2.6875 1.828125 -4.578125q1.21875 -1.90625 3.078125 -2.96875q1.859375 -1.0625 4.390625 -1.0625q2.515625 0 4.375 1.0625q1.859375 1.0625 3.078125 2.96875q1.21875 1.890625 1.796875 4.578125q0.578125 2.671875 0.578125 5.90625zm-3.828125 0q0 -2.515625 -0.328125 -4.59375q-0.3125 -2.078125 -1.03125 -3.578125q-0.71875 -1.5 -1.859375 -2.34375q-1.140625 -0.84375 -2.78125 -0.84375q-1.640625 0 -2.78125 0.84375q-1.140625 0.84375 -1.859375 2.34375q-0.71875 1.5 -1.0625 3.578125q-0.34375 2.078125 -0.34375 4.59375q0 2.53125 0.34375 4.609375q0.34375 2.078125 1.0625 3.5625q0.71875 1.46875 1.859375 2.296875q1.140625 0.8125 2.78125 0.8125q1.640625 0 2.78125 -0.8125q1.140625 -0.828125 1.859375 -2.296875q0.71875 -1.484375 1.03125 -3.5625q0.328125 -2.078125 0.328125 -4.609375zm16.999939 -6.5625q1.390625 -0.4375 3.03125 -0.734375q1.640625 -0.296875 3.0 -0.296875q1.40625 0 2.546875 0.359375q1.140625 0.359375 2.015625 1.203125q1.046875 -0.6875 2.234375 -1.125q1.203125 -0.4375 2.640625 -0.4375q1.453125 0 2.625 0.421875q1.1875 0.421875 2.015625 1.421875q0.84375 1.0 1.328125 2.703125q0.484375 1.6875 0.484375 4.203125l0 12.6875l-3.453125 0l0 -12.40625q0 -3.109375 -0.71875 -4.546875q-0.71875 -1.453125 -2.71875 -1.453125q-0.75 0 -1.53125 0.28125q-0.78125 0.28125 -1.46875 0.765625q0.328125 0.921875 0.484375 2.078125q0.15625 1.15625 0.15625 2.59375l0 12.6875l-3.4375 0l0 -12.40625q0 -3.109375 -0.71875 -4.546875q-0.71875 -1.453125 -2.71875 -1.453125q-1.046875 0 -2.359375 0.40625l0 18.0l-3.4375 0l0 -20.40625zm39.15747 20.40625l-3.4375 0l0 -21.0l3.4375 0l0 21.0zm-1.71875 -24.71875q-0.921875 0 -1.59375 -0.609375q-0.65625 -0.625 -0.65625 -1.671875q0 -1.046875 0.65625 -1.65625q0.671875 -0.625 1.59375 -0.625q0.921875 0 1.578125 0.625q0.65625 0.609375 0.65625 1.65625q0 1.046875 -0.65625 1.671875q-0.65625 0.609375 -1.578125 0.609375zm22.151855 25.234375q-2.15625 0 -3.59375 -0.828125q-1.4375 -0.84375 -2.34375 -2.296875q-0.890625 -1.46875 -1.28125 -3.46875q-0.375 -2.0 -0.375 -4.359375q0 -5.203125 1.890625 -8.140625q1.90625 -2.9375 5.75 -2.9375q1.15625 0 2.078125 0.28125q0.921875 0.28125 1.71875 0.71875l-0.875 2.828125q-1.25 -0.796875 -2.765625 -0.796875q-2.15625 0 -3.1875 1.96875q-1.015625 1.953125 -1.015625 6.078125q0 1.71875 0.203125 3.1875q0.203125 1.453125 0.703125 2.5q0.5 1.03125 1.3125 1.640625q0.828125 0.59375 2.109375 0.59375q0.875 0 1.578125 -0.21875q0.703125 -0.21875 1.34375 -0.578125l0.75 2.671875q-0.640625 0.4375 -1.703125 0.796875q-1.046875 0.359375 -2.296875 0.359375zm18.451233 -2.953125q1.515625 0 2.296875 -0.859375q0.78125 -0.859375 0.78125 -2.265625q0 -0.875 -0.328125 -1.5q-0.3125 -0.625 -0.84375 -1.09375q-0.515625 -0.484375 -1.203125 -0.859375q-0.671875 -0.390625 -1.34375 -0.828125q-0.6875 -0.390625 -1.328125 -0.921875q-0.640625 -0.546875 -1.140625 -1.25q-0.5 -0.703125 -0.796875 -1.59375q-0.296875 -0.90625 -0.296875 -2.109375q0 -2.59375 1.609375 -4.1875q1.625 -1.609375 4.390625 -1.609375q1.15625 0 2.1875 0.296875q1.046875 0.296875 1.734375 0.65625l-0.765625 2.765625q-0.71875 -0.40625 -1.4375 -0.59375q-0.71875 -0.203125 -1.5625 -0.203125q-1.28125 0 -2.046875 0.734375q-0.75 0.734375 -0.75 2.140625q0 0.796875 0.28125 1.375q0.28125 0.578125 0.734375 1.046875q0.46875 0.453125 1.046875 0.859375q0.578125 0.390625 1.21875 0.75q0.75 0.453125 1.484375 0.96875q0.75 0.515625 1.328125 1.21875q0.578125 0.703125 0.9375 1.640625q0.359375 0.9375 0.359375 2.265625q0 2.75 -1.625 4.4375q-1.609375 1.671875 -4.734375 1.671875q-1.59375 0 -2.875 -0.4375q-1.28125 -0.4375 -1.921875 -0.796875l0.71875 -2.84375q0.609375 0.328125 1.625 0.734375q1.015625 0.390625 2.265625 0.390625zm40.14618 2.4375q-0.953125 -2.359375 -2.171875 -5.09375q-1.21875 -2.75 -2.5625 -5.53125q-1.34375 -2.78125 -2.75 -5.515625q-1.390625 -2.734375 -2.75 -5.09375l0 21.234375l-3.359375 0l0 -27.71875l3.0 0q1.515625 2.484375 2.9375 5.078125q1.421875 2.59375 2.703125 5.140625q1.28125 2.546875 2.421875 5.0q1.140625 2.453125 2.09375 4.65625l0 -19.875l3.359375 0l0 27.71875l-2.921875 0zm17.446228 0l0 -27.71875l12.4375 0l0 3.078125l-8.84375 0l0 8.59375l8.0 0l0 3.0l-8.0 0l0 9.96875l9.484375 0l0 3.078125l-13.078125 0zm39.164978 -27.71875l0 3.078125l-6.171875 0l0 24.640625l-3.59375 0l0 -24.640625l-6.15625 0l0 -3.078125l15.921875 0zm16.996216 27.71875l-3.484375 0q-1.234375 -4.125 -2.34375 -9.484375q-1.09375 -5.359375 -2.015625 -11.515625l3.40625 0q0.15625 1.71875 0.46875 4.015625q0.328125 2.296875 0.703125 4.71875q0.390625 2.421875 0.78125 4.6875q0.40625 2.265625 0.765625 3.859375q0.359375 -1.59375 0.8125 -3.90625q0.46875 -2.328125 0.921875 -4.765625q0.46875 -2.453125 0.859375 -4.75q0.40625 -2.296875 0.640625 -3.859375l3.25 0q0.15625 1.5625 0.484375 3.84375q0.34375 2.28125 0.71875 4.75q0.390625 2.453125 0.78125 4.78125q0.40625 2.3125 0.734375 3.90625q0.359375 -1.59375 0.75 -3.875q0.40625 -2.28125 0.78125 -4.6875q0.390625 -2.40625 0.703125 -4.703125q0.328125 -2.296875 0.484375 -4.015625l3.28125 0q-0.921875 6.15625 -2.03125 11.515625q-1.09375 5.359375 -2.328125 9.484375l-3.359375 0q-0.328125 -1.234375 -0.71875 -3.171875q-0.375 -1.953125 -0.75 -4.140625q-0.375 -2.203125 -0.703125 -4.421875q-0.3125 -2.21875 -0.546875 -4.0625q-0.25 1.84375 -0.65625 4.0625q-0.390625 2.21875 -0.828125 4.421875q-0.4375 2.1875 -0.859375 4.140625q-0.421875 1.9375 -0.703125 3.171875zm38.673096 -10.484375q0 2.484375 -0.4375 4.515625q-0.4375 2.015625 -1.34375 3.453125q-0.890625 1.4375 -2.28125 2.234375q-1.375 0.796875 -3.25 0.796875q-1.875 0 -3.28125 -0.796875q-1.40625 -0.796875 -2.3125 -2.234375q-0.890625 -1.4375 -1.328125 -3.453125q-0.4375 -2.03125 -0.4375 -4.515625q0 -2.4375 0.4375 -4.46875q0.4375 -2.046875 1.328125 -3.5q0.90625 -1.46875 2.3125 -2.265625q1.40625 -0.796875 3.28125 -0.796875q1.875 0 3.25 0.796875q1.390625 0.796875 2.28125 2.265625q0.90625 1.453125 1.34375 3.5q0.4375 2.03125 0.4375 4.46875zm-3.59375 0q0 -1.75 -0.203125 -3.203125q-0.203125 -1.46875 -0.640625 -2.53125q-0.4375 -1.0625 -1.15625 -1.640625q-0.71875 -0.578125 -1.71875 -0.578125q-1.046875 0 -1.75 0.578125q-0.6875 0.578125 -1.15625 1.640625q-0.453125 1.0625 -0.65625 2.53125q-0.203125 1.453125 -0.203125 3.203125q0 1.765625 0.203125 3.234375q0.203125 1.453125 0.65625 2.5q0.46875 1.03125 1.15625 1.609375q0.703125 0.578125 1.75 0.578125q1.0 0 1.71875 -0.578125q0.71875 -0.578125 1.15625 -1.609375q0.4375 -1.046875 0.640625 -2.5q0.203125 -1.46875 0.203125 -3.234375zm25.523132 -7.390625q-1.28125 -0.5625 -2.890625 -0.5625q-1.46875 0 -2.75 0.515625l0 17.921875l-3.4375 0l0 -20.078125q1.15625 -0.5625 2.65625 -0.9375q1.5 -0.390625 3.296875 -0.390625q0.96875 0 1.921875 0.125q0.953125 0.125 1.796875 0.4375l-0.59375 2.96875zm24.841858 -3.125q-1.6875 2.875 -3.234375 5.265625q-1.53125 2.375 -3.046875 4.453125q0.953125 1.125 1.953125 2.53125q1.0 1.390625 1.921875 2.890625q0.921875 1.5 1.71875 3.0q0.796875 1.5 1.359375 2.859375l-3.75 0q-0.609375 -1.3125 -1.40625 -2.75q-0.796875 -1.453125 -1.6875 -2.828125q-0.875 -1.375 -1.765625 -2.609375q-0.875 -1.25 -1.625 -2.09375l0 10.28125l-3.4375 0l0 -30.4375l3.4375 -0.609375l0 19.09375q0.71875 -0.96875 1.53125 -2.15625q0.828125 -1.203125 1.625 -2.421875q0.796875 -1.234375 1.515625 -2.390625q0.71875 -1.15625 1.203125 -2.078125l3.6875 0zm14.801819 18.5625q1.515625 0 2.296875 -0.859375q0.78125 -0.859375 0.78125 -2.265625q0 -0.875 -0.328125 -1.5q-0.3125 -0.625 -0.84375 -1.09375q-0.515625 -0.484375 -1.203125 -0.859375q-0.671875 -0.390625 -1.34375 -0.828125q-0.6875 -0.390625 -1.328125 -0.921875q-0.640625 -0.546875 -1.140625 -1.25q-0.5 -0.703125 -0.796875 -1.59375q-0.296875 -0.90625 -0.296875 -2.109375q0 -2.59375 1.609375 -4.1875q1.625 -1.609375 4.390625 -1.609375q1.15625 0 2.1875 0.296875q1.046875 0.296875 1.734375 0.65625l-0.765625 2.765625q-0.71875 -0.40625 -1.4375 -0.59375q-0.71875 -0.203125 -1.5625 -0.203125q-1.28125 0 -2.046875 0.734375q-0.75 0.734375 -0.75 2.140625q0 0.796875 0.28125 1.375q0.28125 0.578125 0.734375 1.046875q0.46875 0.453125 1.046875 0.859375q0.578125 0.390625 1.21875 0.75q0.75 0.453125 1.484375 0.96875q0.75 0.515625 1.328125 1.21875q0.578125 0.703125 0.9375 1.640625q0.359375 0.9375 0.359375 2.265625q0 2.75 -1.625 4.4375q-1.609375 1.671875 -4.734375 1.671875q-1.59375 0 -2.875 -0.4375q-1.28125 -0.4375 -1.921875 -0.796875l0.71875 -2.84375q0.609375 0.328125 1.625 0.734375q1.015625 0.390625 2.265625 0.390625z" fill-rule="nonzero"/></g></svg>